<?xml version="1.0" encoding="UTF-8" standalone="no"?>
<!-- Created with Inkscape (http://www.inkscape.org/) -->

<svg
   xmlns:dc="http://purl.org/dc/elements/1.1/"
   xmlns:cc="http://creativecommons.org/ns#"
   xmlns:rdf="http://www.w3.org/1999/02/22-rdf-syntax-ns#"
   xmlns:svg="http://www.w3.org/2000/svg"
   xmlns="http://www.w3.org/2000/svg"
   version="1.2"
   width="100%"
   height="100%"
   viewBox="0 0 246 53"
   id="svg4109"
   style="stroke-width:1;stroke-linecap:round">
  <title
     data-reactid=".0.0.0.0.0.0.0.0"
     id="appLogo">MyDemocracy.ca</title>
  <metadata
     id="metadata4190">
    <rdf:RDF>
      <cc:Work
         rdf:about="">
        <dc:format>image/svg+xml</dc:format>
        <dc:type
           rdf:resource="http://purl.org/dc/dcmitype/StillImage" />
        <dc:title>MyDemocracy.ca</dc:title>
      </cc:Work>
    </rdf:RDF>
  </metadata>
  <defs
     id="defs4188" />
  <g
     id="g4112"
     style="fill:#0c70c2;fill-opacity:1">
    <g
       id="Landing"
       style="fill:#0c70c2;fill-opacity:1;stroke:none">
      <g
         transform="translate(-20,-26)"
         id="Landing-–-Mobile-(elecReform)"
         style="fill:#0c70c2;fill-opacity:1">
        <g
           transform="translate(20,26)"
           id="Logo"
           style="fill:#0c70c2;fill-opacity:1">
          <g
             id="g4117"
             style="fill:#0c70c2;fill-opacity:1">
            <g
               id="leafIllustration"
               style="fill:#0c70c2;fill-opacity:1" />
          </g>
        </g>
      </g>
    </g>
  </g>
  <flowRoot
     id="flowRoot3886"
     xml:space="preserve"
     style="font-size:40px;font-style:normal;font-weight:normal;line-height:125%;letter-spacing:0px;word-spacing:0px;fill:#000000;fill-opacity:1;stroke:none;font-family:Sans"><flowRegion
       id="flowRegion3888"><rect
         width="59.072475"
         height="51.614822"
         x="113.43485"
         y="2.1701953"
         id="rect3890" /></flowRegion><flowPara
       id="flowPara3892" /></flowRoot>  <g
     transform="translate(53.773128,5.6907769)"
     id="flowRoot3894"
     style="font-size:26px;font-style:normal;font-variant:normal;font-weight:normal;font-stretch:normal;text-align:start;line-height:125%;letter-spacing:0px;word-spacing:0px;writing-mode:lr-tb;text-anchor:start;fill:#0c70c2;fill-opacity:1;stroke:none;font-family:Nimbus Roman No9 L;-inkscape-font-specification:Nimbus Roman No9 L">
    <path
       d="m 112.483,8.8059118 -1.274,0 -1.872,2.7820002 c -1.664,-0.935999 -2.834,-1.274 -4.55,-1.274 -4.991995,0 -8.528,3.718005 -8.528,8.996 0,1.637998 0.390001,3.328001 1.066,4.628 0.468,0.909999 0.884001,1.430001 1.976,2.418 l -2.47,3.614 1.274,0 2.054,-3.016 c 1.612,0.961999 2.808,1.3 4.55,1.3 5.04399,0 8.554,-3.692005 8.554,-8.97 0,-1.689998 -0.39,-3.380001 -1.092,-4.68 -0.468,-0.909999 -0.91,-1.430001 -1.976,-2.418 l 2.288,-3.3800002 m -3.406,5.0440002 c 0.884,1.689998 1.222,3.146002 1.222,5.46 0,4.965995 -2.106,8.008 -5.538,8.008 -1.508,0 -2.574,-0.494001 -3.692,-1.716 l 8.008,-11.752 m -8.658,10.842 c -0.883999,-1.663999 -1.196,-3.094002 -1.196,-5.382 0,-4.965995 2.132,-8.06 5.538,-8.06 1.43,0 2.522,0.494001 3.666,1.69 l -8.008,11.752 m -121.192128,-25.3826889 7,0 0,3 -7,0 z m 3,-5 4,0 0,3 -4,0 z m -10,5 4,0 0,3 -4,0 z m 15,5 4,0 0,3 -4,0 z m -29,0 4,0 0,3 -4,0 z m -3,39.9999999 4,0 0,3 -4,0 z m 2,-5 4,0 0,3 -4,0 z m 34,-5 4,0 0,3 -4,0 z m -7,0 6,0 0,3 -6,0 z m -12,5 11,0 0,3 -11,0 z m -4,-5 15,0 0,3 -15,0 z m -9,0 6,0 0,3 -6,0 z m 10,-5 10,0 0,3 -10,0 z m 11,0 10,0 0,3 -10,0 z m -25,0 13,0 0,3 -13,0 z m -5,0 4,0 0,3 -4,0 z m 46,-5 4,0 0,3 -4,0 z m 3,-5 4,0 0,3 -4,0 z m -53,5 13,0 0,3 -13,0 z m 14,0 10,0 0,3 -10,0 z m 11,0 6,0 0,3 -6,0 z m 7,0 9,0 0,3 -9,0 z m 10,0 7,0 0,3 -7,0 z m 8,-10 4,0 0,3 -4,0 z m -6,5 8,0 0,3 -8,0 z m -7,0 4,0 0,3 -4,0 z m -7,0 6,0 0,3 -6,0 z m -5,0 4,0 0,3 -4,0 z m -15,0 14,0 0,3 -14,0 z m 12,-5 4,0 0,3 -4,0 z m -9,0 8,0 0,3 -8,0 z m -8,5 4,0 0,3 -4,0 z m -5,-9.9999999 4,0 0,2.9999999 -4,0 z m 25,-5 8,0 0,3 -8,0 z m 9,0 6,0 0,3 -6,0 z m 3,5 5,0 0,2.9999999 -5,0 z m -5,0 4,0 0,2.9999999 -4,0 z m -5,4.9999999 12,0 0,3 -12,0 z m -4,-4.9999999 8,0 0,2.9999999 -8,0 z m -20,4.9999999 9,0 0,3 -9,0 z m 9,-4.9999999 7,0 0,2.9999999 -7,0 z m -7,0 6,0 0,2.9999999 -6,0 z m -2,-5 8,0 0,3 -8,0 z m 0,-5 4,0 0,3 -4,0 z m 68.738281,27.9999999 0,-0.984375 1.441406,-0.1875 0.433594,-0.457031 0,-13.03125 -0.304687,-0.339844 -1.59375,-0.140625 0,-0.960938 5.097656,0 0,0.644532 4.511719,12.046875 4.558593,-11.953125 0,-0.738282 5.132813,0 0,0.960938 -1.511719,0.140625 -0.292969,0.339844 0,13.21875 0.292969,0.339843 1.511719,0.117188 0,0.984375 -5.730469,0 0,-0.984375 1.582031,-0.117188 0.234375,-0.339843 0,-13.535157 -5.683593,14.976563 -1.03125,0 -5.472657,-14.730469 0,13.101563 0.433594,0.457031 1.464844,0.1875 0,0.984375 z m 19.627344,-11.542969 5.203125,0 0,0.890625 -1.265625,0.09375 -0.292969,0.386719 2.882813,7.464844 3.000001,-7.464844 -0.1875,-0.386719 -1.300783,-0.09375 0,-0.890625 4.277343,0 0,0.890625 -1.39453,0.1875 -4.804688,11.660156 c -0.58594,1.41407 -1.18359,2.43945 -1.792968,3.076172 -0.609378,0.636722 -1.289059,0.955078 -2.039063,0.955078 -0.500002,0 -0.902342,-0.123045 -1.207031,-0.36914 -0.304689,-0.246095 -0.457031,-0.568357 -0.457031,-0.966797 0,-0.234376 0.05273,-0.460936 0.158203,-0.679688 0.105469,-0.218751 0.259764,-0.42578 0.46289,-0.621093 l 2.308594,0.914062 c 0.351565,-0.375002 0.693358,-0.87109 1.025391,-1.488281 0.332033,-0.617191 0.63867,-1.320309 0.919922,-2.109375 l -4.03125,-10.417969 -1.464844,-0.140625 z m 16.228905,-3.457031 0,13.898437 1.89844,0 c 2.18751,0 3.82226,-0.576166 4.9043,-1.728515 1.08203,-1.15235 1.62304,-2.896473 1.62304,-5.232422 0,-2.335949 -0.5371,-4.076166 -1.61133,-5.220703 -1.07422,-1.144537 -2.71287,-1.716797 -4.91601,-1.716797 z m 1.99219,-1.101563 c 2.81251,0 4.99218,0.701165 6.53906,2.103516 1.54688,1.402351 2.32031,3.380847 2.32031,5.935547 0,1.421882 -0.25195,2.685541 -0.75586,3.791016 -0.5039,1.105474 -1.25194,2.033199 -2.24414,2.783203 -0.70313,0.531252 -1.49609,0.912108 -2.3789,1.142578 -0.88282,0.23047 -2.04296,0.345703 -3.48047,0.345703 l -5.91797,0 0,-0.984375 1.35938,-0.117188 0.41015,-0.339843 0,-13.21875 -0.41015,-0.339844 -1.35938,-0.140625 0,-0.960938 z m 18.12734,8.777344 0,-0.375 c 0,-0.968755 -0.21289,-1.710935 -0.63867,-2.226562 -0.42578,-0.515628 -1.04492,-0.773438 -1.85742,-0.773438 -0.79688,0 -1.48633,0.318356 -2.06836,0.955078 -0.58203,0.636722 -0.9082,1.443355 -0.97852,2.419922 z m 2.14453,4.78125 0,1.324219 c -0.71094,0.468752 -1.44921,0.824218 -2.21484,1.066406 -0.76563,0.242189 -1.53515,0.363281 -2.30859,0.363281 -1.58595,0 -2.87305,-0.544916 -3.86133,-1.634765 -0.98829,-1.089849 -1.48242,-2.509757 -1.48242,-4.259766 0,-1.796884 0.51757,-3.263666 1.55273,-4.40039 1.03516,-1.136725 2.36523,-1.705079 3.99023,-1.705079 1.32814,0 2.38086,0.423824 3.15821,1.271485 0.77735,0.84766 1.16601,2.001946 1.16601,3.46289 0,0.195314 -0.002,0.34375 -0.006,0.445313 -0.004,0.101563 -0.0137,0.199218 -0.0293,0.292969 l -7.76953,0 0,0.269531 c 0,1.50782 0.36327,2.701167 1.08984,3.580078 0.72657,0.878911 1.70703,1.318359 2.94141,1.318359 0.57031,0 1.1621,-0.11328 1.77539,-0.339843 0.61328,-0.226564 1.27929,-0.578123 1.99804,-1.054688 z m 11.52969,-7.628906 c 0.92188,-0.546878 1.72265,-0.953124 2.40234,-1.21875 0.6797,-0.265626 1.25391,-0.398438 1.72266,-0.398438 0.96876,0 1.72265,0.31445 2.26172,0.94336 0.53906,0.628909 0.80859,1.50976 0.80859,2.642578 l 0,6.832031 0.4336,0.386719 1.27734,0.117187 0,0.867188 -5.23828,0 0,-0.867188 1.125,-0.117187 0.43359,-0.386719 0,-6.351562 c 0,-0.851567 -0.17578,-1.476561 -0.52734,-1.875 -0.35156,-0.39844 -0.89453,-0.597657 -1.62891,-0.597657 -0.36719,0 -0.77539,0.06445 -1.22461,0.19336 -0.44922,0.128907 -0.94335,0.32617 -1.48242,0.591797 l 0,8.039062 0.42188,0.386719 1.13672,0.117187 0,0.867188 -5.1211,0 0,-0.867188 1.16016,-0.117187 0.41015,-0.386719 0,-6.351562 c 0,-0.843755 -0.17382,-1.466795 -0.52148,-1.869141 -0.34766,-0.402346 -0.88086,-0.603516 -1.59961,-0.603516 -0.39063,0 -0.81054,0.06445 -1.25976,0.19336 -0.44923,0.128907 -0.93946,0.32617 -1.47071,0.591797 l 0,8.039062 0.41016,0.386719 1.14844,0.117187 0,0.867188 -5.26172,0 0,-0.867188 1.30078,-0.117187 0.41015,-0.386719 0,-8.683594 -1.71093,0 0,-0.75 2.78906,-0.855468 0.91406,0 0,1.3125 c 0.83594,-0.49219 1.56445,-0.855468 2.18555,-1.089844 0.6211,-0.234376 1.17382,-0.351563 1.6582,-0.351563 0.58594,0 1.10352,0.136718 1.55274,0.410157 0.44922,0.273439 0.81054,0.675778 1.08398,1.207031 z m 35.660938,9.164062 c -0.67188,0.390628 -1.33203,0.683593 -1.98047,0.878907 -0.64844,0.195313 -1.28906,0.292968 -1.92188,0.292968 -1.625,0 -2.93163,-0.544916 -3.91992,-1.634765 -0.98828,-1.089849 -1.48242,-2.529288 -1.48242,-4.31836 0,-1.773446 0.52539,-3.216791 1.57617,-4.330078 1.05079,-1.113286 2.41992,-1.669922 4.10742,-1.669922 1.1172,0 1.9961,0.212889 2.63672,0.638672 0.64063,0.425784 0.96094,0.998044 0.96094,1.716797 0,0.382815 -0.12109,0.691405 -0.36328,0.925781 -0.24219,0.234377 -0.5664,0.351563 -0.97266,0.351563 -0.17969,0 -0.35937,-0.03125 -0.53906,-0.09375 -0.17969,-0.0625 -0.35937,-0.152343 -0.53906,-0.269531 l 0,-1.96875 c -0.1875,-0.109376 -0.37891,-0.193359 -0.57422,-0.251953 -0.19531,-0.05859 -0.39062,-0.08789 -0.58594,-0.08789 -1.0625,0 -1.91601,0.443355 -2.56054,1.330078 -0.64454,0.886723 -0.9668,2.068352 -0.9668,3.544922 0,1.460945 0.36523,2.611324 1.0957,3.451172 0.73047,0.839848 1.7246,1.259765 2.98242,1.259765 0.52344,0 1.03516,-0.08398 1.53516,-0.251953 0.5,-0.167969 1.0039,-0.423826 1.51172,-0.767578 z m 0.81875,1.007813 0,-0.867188 1.27734,-0.117187 0.41016,-0.386719 0,-8.683594 -1.6875,0 0,-0.75 2.78906,-0.855468 0.91406,0 0,2.25 c 0.39063,-0.39844 0.79883,-0.791014 1.22461,-1.177735 0.42579,-0.38672 0.87305,-0.767576 1.3418,-1.142578 0.0703,-0.02344 0.14648,-0.03906 0.22852,-0.04687 0.082,-0.0078 0.20507,-0.01172 0.36914,-0.01172 0.24219,0 0.48046,0.02539 0.71484,0.07617 0.23438,0.05078 0.47656,0.130859 0.72656,0.240235 l 0,2.0625 -0.76172,0 c -0.15625,-0.187501 -0.33789,-0.330078 -0.54492,-0.427735 -0.20703,-0.09766 -0.43554,-0.146484 -0.68555,-0.146484 -0.38281,0 -0.7871,0.142577 -1.21289,0.427734 -0.42578,0.285158 -0.89257,0.728513 -1.40039,1.330078 l 0,6.855469 0.41016,0.386719 1.67578,0.117187 0,0.867188 z m 16.06484,-2.203125 0,-4.230469 c -2.00782,0.55469 -3.32617,1.062498 -3.95508,1.523438 -0.62891,0.46094 -0.94336,1.066402 -0.94336,1.816406 0,0.601565 0.17383,1.080076 0.52149,1.435547 0.34766,0.35547 0.81445,0.533203 1.40039,0.533203 0.375,0 0.80664,-0.08984 1.29492,-0.269531 0.48829,-0.179689 1.04883,-0.449217 1.68164,-0.808594 z m 0,0.808594 c -0.77344,0.531252 -1.48242,0.923827 -2.12695,1.177734 -0.64454,0.253908 -1.24805,0.380859 -1.81055,0.380859 -0.92969,0 -1.67382,-0.281247 -2.23242,-0.84375 -0.5586,-0.562502 -0.83789,-1.304682 -0.83789,-2.226562 0,-1.023443 0.41992,-1.828122 1.25977,-2.414063 0.83984,-0.58594 2.75584,-1.238277 5.74804,-1.957031 l 0,-0.761719 c 0,-1.007817 -0.16406,-1.707029 -0.49219,-2.097656 -0.32812,-0.390627 -0.89843,-0.585937 -1.71093,-0.585937 -0.30469,0 -0.60547,0.03125 -0.90235,0.09375 -0.29687,0.0625 -0.60546,0.156249 -0.92578,0.28125 l 0,2.015625 -1.65234,0 c -0.28907,0 -0.48633,-0.05273 -0.5918,-0.158203 -0.10547,-0.10547 -0.1582,-0.298827 -0.1582,-0.580079 0,-0.781253 0.45117,-1.429684 1.35351,-1.945312 0.90235,-0.515628 2.06836,-0.773438 3.49805,-0.773438 1.25782,0 2.17187,0.273435 2.74219,0.820313 0.57031,0.546878 0.85547,1.425775 0.85547,2.636719 l 0,6.960937 0.41015,0.386719 1.26563,0.117187 0,0.867188 -3.375,0 z m 13.94375,0.386718 c -0.67188,0.390628 -1.33203,0.683593 -1.98047,0.878907 -0.64844,0.195313 -1.28906,0.292968 -1.92187,0.292968 -1.62501,0 -2.93164,-0.544916 -3.91992,-1.634765 -0.98829,-1.089849 -1.48243,-2.529288 -1.48243,-4.31836 0,-1.773446 0.52539,-3.216791 1.57618,-4.330078 1.05078,-1.113286 2.41991,-1.669922 4.10742,-1.669922 1.11719,0 1.99609,0.212889 2.63672,0.638672 0.64063,0.425784 0.96093,0.998044 0.96093,1.716797 0,0.382815 -0.12109,0.691405 -0.36328,0.925781 -0.24219,0.234377 -0.5664,0.351563 -0.97265,0.351563 -0.17969,0 -0.35938,-0.03125 -0.53907,-0.09375 -0.17968,-0.0625 -0.35937,-0.152343 -0.53906,-0.269531 l 0,-1.96875 c -0.1875,-0.109376 -0.3789,-0.193359 -0.57422,-0.251953 -0.19531,-0.05859 -0.39062,-0.08789 -0.58593,-0.08789 -1.06251,0 -1.91602,0.443355 -2.56055,1.330078 -0.64454,0.886723 -0.9668,2.068352 -0.9668,3.544922 0,1.460945 0.36523,2.611324 1.09571,3.451172 0.73047,0.839848 1.7246,1.259765 2.98242,1.259765 0.52344,0 1.03515,-0.08398 1.53515,-0.251953 0.50001,-0.167969 1.00391,-0.423826 1.51172,-0.767578 z m 0.0805,-10.535156 5.20313,0 0,0.890625 -1.26563,0.09375 -0.29297,0.386719 2.88281,7.464844 3,-7.464844 -0.1875,-0.386719 -1.30078,-0.09375 0,-0.890625 4.27735,0 0,0.890625 -1.39453,0.1875 -4.80469,11.660156 c -0.58594,1.41407 -1.18359,2.43945 -1.79297,3.076172 -0.60938,0.636722 -1.28906,0.955078 -2.03906,0.955078 -0.50001,0 -0.90235,-0.123045 -1.20703,-0.36914 -0.30469,-0.246095 -0.45704,-0.568357 -0.45704,-0.966797 0,-0.234376 0.0527,-0.460936 0.15821,-0.679688 0.10547,-0.218751 0.25976,-0.42578 0.46289,-0.621093 l 2.30859,0.914062 c 0.35157,-0.375002 0.69336,-0.87109 1.02539,-1.488281 0.33204,-0.617191 0.63867,-1.320309 0.91992,-2.109375 l -4.03125,-10.417969 -1.46484,-0.140625 z m 11.65859,8.707031 c 0.42188,0 0.7793,0.148436 1.07227,0.445313 0.29297,0.296876 0.43945,0.660154 0.43945,1.089844 0,0.421877 -0.14843,0.779295 -0.44531,1.072265 -0.29688,0.292971 -0.65234,0.439453 -1.06641,0.439453 -0.42969,0 -0.79296,-0.144529 -1.08984,-0.433593 -0.29688,-0.289064 -0.44531,-0.648436 -0.44531,-1.078125 0,-0.421877 0.14843,-0.783202 0.44531,-1.083985 0.29688,-0.300782 0.66015,-0.451172 1.08984,-0.451172 z m 13.12344,1.828125 c -0.67188,0.390628 -1.33203,0.683593 -1.98047,0.878907 -0.64844,0.195313 -1.28906,0.292968 -1.92187,0.292968 -1.62501,0 -2.93164,-0.544916 -3.91992,-1.634765 -0.98829,-1.089849 -1.48243,-2.529288 -1.48243,-4.31836 0,-1.773446 0.52539,-3.216791 1.57618,-4.330078 1.05078,-1.113286 2.41991,-1.669922 4.10742,-1.669922 1.11719,0 1.99609,0.212889 2.63672,0.638672 0.64063,0.425784 0.96093,0.998044 0.96093,1.716797 0,0.382815 -0.12109,0.691405 -0.36328,0.925781 -0.24219,0.234377 -0.5664,0.351563 -0.97265,0.351563 -0.17969,0 -0.35938,-0.03125 -0.53907,-0.09375 -0.17968,-0.0625 -0.35937,-0.152343 -0.53906,-0.269531 l 0,-1.96875 c -0.1875,-0.109376 -0.3789,-0.193359 -0.57422,-0.251953 -0.19531,-0.05859 -0.39062,-0.08789 -0.58593,-0.08789 -1.06251,0 -1.91602,0.443355 -2.56055,1.330078 -0.64454,0.886723 -0.9668,2.068352 -0.9668,3.544922 0,1.460945 0.36523,2.611324 1.09571,3.451172 0.73047,0.839848 1.7246,1.259765 2.98242,1.259765 0.52344,0 1.03515,-0.08398 1.53515,-0.251953 0.50001,-0.167969 1.00391,-0.423826 1.51172,-0.767578 z m 8.11953,-1.195312 0,-4.230469 c -2.00782,0.55469 -3.32617,1.062498 -3.95507,1.523438 -0.62891,0.46094 -0.94336,1.066402 -0.94336,1.816406 0,0.601565 0.17382,1.080076 0.52148,1.435547 0.34766,0.35547 0.81445,0.533203 1.40039,0.533203 0.375,0 0.80664,-0.08984 1.29492,-0.269531 0.48829,-0.179689 1.04883,-0.449217 1.68164,-0.808594 z m 0,0.808594 c -0.77344,0.531252 -1.48242,0.923827 -2.12695,1.177734 -0.64453,0.253908 -1.24804,0.380859 -1.81055,0.380859 -0.92969,0 -1.67382,-0.281247 -2.23242,-0.84375 -0.5586,-0.562502 -0.83789,-1.304682 -0.83789,-2.226562 0,-1.023443 0.41992,-1.828122 1.25977,-2.414063 0.83984,-0.58594 2.75584,-1.238277 5.74804,-1.957031 l 0,-0.761719 c 0,-1.007817 -0.16406,-1.707029 -0.49218,-2.097656 -0.32813,-0.390627 -0.89844,-0.585937 -1.71094,-0.585937 -0.30469,0 -0.60547,0.03125 -0.90235,0.09375 -0.29687,0.0625 -0.60546,0.156249 -0.92578,0.28125 l 0,2.015625 -1.65234,0 c -0.28906,0 -0.48633,-0.05273 -0.5918,-0.158203 -0.10547,-0.10547 -0.1582,-0.298827 -0.1582,-0.580079 0,-0.781253 0.45117,-1.429684 1.35352,-1.945312 0.90234,-0.515628 2.06835,-0.773438 3.49804,-0.773438 1.25782,0 2.17187,0.273435 2.74219,0.820313 0.57031,0.546878 0.85547,1.425775 0.85547,2.636719 l 0,6.960937 0.41015,0.386719 1.26563,0.117187 0,0.867188 -3.375,0 z"
       id="path4113" />
  </g>
</svg>
