<?xml version="1.0" encoding="UTF-8" standalone="no"?>
<!-- Created with Inkscape (http://www.inkscape.org/) -->

<svg
   xmlns:dc="http://purl.org/dc/elements/1.1/"
   xmlns:cc="http://creativecommons.org/ns#"
   xmlns:rdf="http://www.w3.org/1999/02/22-rdf-syntax-ns#"
   xmlns:svg="http://www.w3.org/2000/svg"
   xmlns="http://www.w3.org/2000/svg"
   version="1.1"
   width="100%"
   height="100%"
   viewBox="0 0 36 94"
   id="svg3082"
   style="stroke-width:1;stroke-linecap:round">
  <metadata
     id="metadata3139">
    <rdf:RDF>
      <cc:Work
         rdf:about="">
        <dc:format>image/svg+xml</dc:format>
        <dc:type
           rdf:resource="http://purl.org/dc/dcmitype/StillImage" />
        <dc:title></dc:title>
      </cc:Work>
    </rdf:RDF>
  </metadata>
  <defs
     id="defs3137" />
  <g
     id="g3084"
     style="fill:#0c70c2;fill-opacity:1">
    <g
       id="Landing"
       style="fill:#0c70c2;fill-opacity:1;fill-rule:evenodd;stroke:none">
      <g
         transform="translate(-49,-70)"
         id="Landing-–-Mobile-(elecReform)"
         style="fill:#0c70c2;fill-opacity:1">
        <g
           transform="translate(49,70)"
           id="parliamentIllustration"
           style="fill:#0c70c2;fill-opacity:1">
          <rect
             width="18"
             height="14"
             x="9"
             y="70"
             id="Rectangle-11"
             style="fill:#0c70c2;fill-opacity:1" />
          <path
             d="m 14,25 8,0 5,31 0,8 -18,0 0,-8 5,-31 z m -1,28 2,0 0,4 -2,0 0,-4 z m 8,0 2,0 0,4 -2,0 0,-4 z m -4,-10 2,0 0,4 -2,0 0,-4 z"
             id="Combined-Shape"
             style="fill:#0c70c2;fill-opacity:1" />
          <path
             d="m 9,65 18,0 0,4 -18,0 0,-4 z m 0,0 2,0 0,2 -2,0 0,-2 z m 4,0 2,0 0,2 -2,0 0,-2 z m 4,0 2,0 0,2 -2,0 0,-2 z m 4,0 2,0 0,2 -2,0 0,-2 z m 4,0 2,0 0,2 -2,0 0,-2 z"
             id="path3091"
             style="fill:#0c70c2;fill-opacity:1" />
          <rect
             width="2"
             height="21"
             x="17"
             y="0"
             id="Rectangle-9-Copy"
             style="fill:#0c70c2;fill-opacity:1" />
          <rect
             width="8"
             height="2"
             x="14"
             y="22"
             id="Rectangle-9-Copy-3"
             style="fill:#0c70c2;fill-opacity:1" />
          <rect
             width="2"
             height="4"
             x="14"
             y="17"
             id="rect3095"
             style="fill:#0c70c2;fill-opacity:1" />
          <rect
             width="2"
             height="4"
             x="20"
             y="17"
             id="rect3097"
             style="fill:#0c70c2;fill-opacity:1" />
          <rect
             width="3"
             height="6"
             x="20"
             y="0"
             id="Rectangle-9-Copy-2"
             style="fill:#0c70c2;fill-opacity:1" />
          <rect
             width="3"
             height="6"
             x="25"
             y="1"
             id="rect3100"
             style="fill:#0c70c2;fill-opacity:1" />
          <rect
             width="3"
             height="25"
             x="5"
             y="64"
             id="Rectangle-8"
             style="fill:#0c70c2;fill-opacity:1" />
          <rect
             width="3"
             height="2"
             x="5"
             y="56"
             id="rect3103"
             style="fill:#0c70c2;fill-opacity:1" />
          <polygon
             points="34,60 36,63.947368 32,63.947368 "
             id="Rectangle-8-Copy-3"
             style="fill:#0c70c2;fill-opacity:1" />
          <rect
             width="4"
             height="4"
             x="32"
             y="65"
             id="Rectangle-4"
             style="fill:#0c70c2;fill-opacity:1" />
          <rect
             width="4"
             height="4"
             x="32"
             y="85"
             id="Rectangle-4-Copy"
             style="fill:#0c70c2;fill-opacity:1" />
          <rect
             width="4"
             height="4"
             x="32"
             y="90"
             id="Rectangle-4-Copy-2"
             style="fill:#0c70c2;fill-opacity:1" />
          <rect
             width="4"
             height="14"
             x="32"
             y="70"
             id="rect3109"
             style="fill:#0c70c2;fill-opacity:1" />
          <rect
             width="3"
             height="2"
             x="5"
             y="60"
             id="rect3111"
             style="fill:#0c70c2;fill-opacity:1" />
          <circle
             cx="18"
             cy="77"
             r="6"
             id="Oval"
             style="fill:#ffffff;fill-opacity:1" />
          <path
             d="m 19,77 0,-4 -2,0 0,4.5 0,1.5 4,0 0,-2 -2,0 z"
             id="path3114"
             style="fill:#0c70c2;fill-opacity:1" />
          <rect
             width="3"
             height="25"
             x="28"
             y="64"
             id="Rectangle-8-Copy-4"
             style="fill:#0c70c2;fill-opacity:1" />
          <rect
             width="3"
             height="2"
             x="28"
             y="56"
             id="Rectangle-8-Copy-5"
             style="fill:#0c70c2;fill-opacity:1" />
          <rect
             width="3"
             height="2"
             x="28"
             y="60"
             id="Rectangle-8-Copy-6"
             style="fill:#0c70c2;fill-opacity:1" />
          <polygon
             points="2,60 4,63.947368 0,63.947368 "
             id="polygon3119"
             style="fill:#0c70c2;fill-opacity:1" />
          <rect
             width="4"
             height="4"
             x="0"
             y="65"
             id="rect3121"
             style="fill:#0c70c2;fill-opacity:1" />
          <rect
             width="4"
             height="4"
             x="0"
             y="85"
             id="rect3123"
             style="fill:#0c70c2;fill-opacity:1" />
          <rect
             width="4"
             height="4"
             x="0"
             y="90"
             id="rect3125"
             style="fill:#0c70c2;fill-opacity:1" />
          <rect
             width="4"
             height="14"
             x="0"
             y="70"
             id="rect3127"
             style="fill:#0c70c2;fill-opacity:1" />
          <rect
             width="2"
             height="4"
             x="11"
             y="85"
             id="Rectangle-12"
             style="fill:#0c70c2;fill-opacity:1" />
          <rect
             width="2"
             height="4"
             x="15"
             y="85"
             id="Rectangle-12-Copy"
             style="fill:#0c70c2;fill-opacity:1" />
          <rect
             width="2"
             height="4"
             x="19"
             y="85"
             id="Rectangle-12-Copy-2"
             style="fill:#0c70c2;fill-opacity:1" />
          <rect
             width="2"
             height="4"
             x="23"
             y="85"
             id="Rectangle-12-Copy-3"
             style="fill:#0c70c2;fill-opacity:1" />
          <path
             d="m 5,90 26,0 0,4 -26,0 0,-4 z m 2,0 2,0 0,2 -2,0 0,-2 z m 20,0 2,0 0,2 -2,0 0,-2 z m -12,0 2,0 0,2 -2,0 0,-2 z m 4,0 2,0 0,2 -2,0 0,-2 z m 4,0 2,0 0,2 -2,0 0,-2 z m -12,0 2,0 0,2 -2,0 0,-2 z"
             id="path3133"
             style="fill:#0c70c2;fill-opacity:1" />
        </g>
      </g>
    </g>
  </g>
</svg>
