<svg role="img" viewBox="0 0 36 94" style="margin:auto;width:36px;height:94px;" stroke-width="1" stroke="1" stroke-linecap="round" version="1.1" data-reactid=".0.0.1.0.0.0.$parliament.0.0.0"><g fill="black" data-reactid=".0.0.1.0.0.0.$parliament.0.0.0.2"><g id="Landing" stroke="none" stroke-width="1" fill="none" fill-rule="evenodd"><g id="Landing-–-Mobile-(elecReform)" transform="translate(-49.000000, -70.000000)"><g id="parliamentIllustration" transform="translate(49.000000, 70.000000)"><rect id="Rectangle-11" fill="#FF0000" x="9" y="70" width="18" height="14"></rect><path d="M14,25 L22,25 L27,56 L27,64 L9,64 L9,56 L14,25 Z M13,53 L15,53 L15,57 L13,57 L13,53 Z M21,53 L23,53 L23,57 L21,57 L21,53 Z M17,43 L19,43 L19,47 L17,47 L17,43 Z" id="Combined-Shape" fill="#FF0000"></path><path d="M9,65 L27,65 L27,69 L9,69 L9,65 Z M9,65 L11,65 L11,67 L9,67 L9,65 Z M13,65 L15,65 L15,67 L13,67 L13,65 Z M17,65 L19,65 L19,67 L17,67 L17,65 Z M21,65 L23,65 L23,67 L21,67 L21,65 Z M25,65 L27,65 L27,67 L25,67 L25,65 Z" id="Combined-Shape" fill="#FF0000"></path><rect id="Rectangle-9-Copy" fill="#FF0000" x="17" y="0" width="2" height="21"></rect><rect id="Rectangle-9-Copy-3" fill="#FF0000" x="14" y="22" width="8" height="2"></rect><rect id="Rectangle-9-Copy" fill="#FF0000" x="14" y="17" width="2" height="4"></rect><rect id="Rectangle-9-Copy" fill="#FF0000" x="20" y="17" width="2" height="4"></rect><rect id="Rectangle-9-Copy-2" fill="#FF0000" x="20" y="0" width="3" height="6"></rect><rect id="Rectangle-9-Copy-2" fill="#FF0000" x="25" y="1" width="3" height="6"></rect><rect id="Rectangle-8" fill="#FF0000" x="5" y="64" width="3" height="25"></rect><rect id="Rectangle-8" fill="#FF0000" x="5" y="56" width="3" height="2"></rect><polygon id="Rectangle-8-Copy-3" fill="#FF0000" points="32 63.9473684 34 60 36 63.9473684"></polygon><rect id="Rectangle-4" fill="#FF0000" x="32" y="65" width="4" height="4"></rect><rect id="Rectangle-4-Copy" fill="#FF0000" x="32" y="85" width="4" height="4"></rect><rect id="Rectangle-4-Copy-2" fill="#FF0000" x="32" y="90" width="4" height="4"></rect><rect id="Rectangle-4" fill="#FF0000" x="32" y="70" width="4" height="14"></rect><rect id="Rectangle-8" fill="#FF0000" x="5" y="60" width="3" height="2"></rect><circle id="Oval" fill="#FFFFFF" cx="18" cy="77" r="6"></circle><path d="M19,77 L19,73 L17,73 L17,77.5 L17,79 L21,79 L21,77 L19,77 Z" id="Combined-Shape" fill="#FF0000"></path><rect id="Rectangle-8-Copy-4" fill="#FF0000" x="28" y="64" width="3" height="25"></rect><rect id="Rectangle-8-Copy-5" fill="#FF0000" x="28" y="56" width="3" height="2"></rect><rect id="Rectangle-8-Copy-6" fill="#FF0000" x="28" y="60" width="3" height="2"></rect><polygon id="Rectangle-8-Copy-3" fill="#FF0000" points="0 63.9473684 2 60 4 63.9473684"></polygon><rect id="Rectangle-4" fill="#FF0000" x="0" y="65" width="4" height="4"></rect><rect id="Rectangle-4-Copy" fill="#FF0000" x="0" y="85" width="4" height="4"></rect><rect id="Rectangle-4-Copy-2" fill="#FF0000" x="0" y="90" width="4" height="4"></rect><rect id="Rectangle-4" fill="#FF0000" x="0" y="70" width="4" height="14"></rect><rect id="Rectangle-12" fill="#FF0000" x="11" y="85" width="2" height="4"></rect><rect id="Rectangle-12-Copy" fill="#FF0000" x="15" y="85" width="2" height="4"></rect><rect id="Rectangle-12-Copy-2" fill="#FF0000" x="19" y="85" width="2" height="4"></rect><rect id="Rectangle-12-Copy-3" fill="#FF0000" x="23" y="85" width="2" height="4"></rect><path d="M5,90 L31,90 L31,94 L5,94 L5,90 Z M7,90 L9,90 L9,92 L7,92 L7,90 Z M27,90 L29,90 L29,92 L27,92 L27,90 Z M15,90 L17,90 L17,92 L15,92 L15,90 Z M19,90 L21,90 L21,92 L19,92 L19,90 Z M23,90 L25,90 L25,92 L23,92 L23,90 Z M11,90 L13,90 L13,92 L11,92 L11,90 Z" id="Combined-Shape" fill="#FF0000"></path></g></g></g></g></svg>
